<?xml version="1.0" encoding="UTF-8"?>
<svg xmlns="http://www.w3.org/2000/svg" viewBox="0 0 1096 1095" width="1096" height="1095">
<path d="M0.25 0.25C365.42 0.25 730.58 0.25 1095.75 0.25C1095.75 365.08 1095.75 729.92 1095.75 1094.75C730.58 1094.75 365.42 1094.75 0.25 1094.75C0.25 729.92 0.25 365.08 0.25 0.25ZM704.78 698.2C704.78 629.97 704.78 561.73 704.78 493.5C704.78 481.17 704.78 468.83 704.78 456.5C704.78 440.4 704.54 424.09 692.89 411.63C680.41 398.27 661.21 399.06 644.5 399.06C634.83 399.06 625.17 399.06 615.5 399.06C605.31 399.06 593.98 397.74 583.99 399.5C583.99 413.5 583.99 427.5 583.99 441.5C589.58 442.6 595.76 441.99 601.5 441.99C612.83 441.99 624.17 441.99 635.5 441.99C639.63 441.99 651 440.7 653.88 443.68C656.32 446.21 655.21 456.86 655.21 460.5C655.21 476.5 655.21 492.5 655.21 508.5C655.21 571.73 655.21 634.97 655.21 698.2C628.72 698.2 602.23 698.2 575.74 698.2C575.74 712.49 575.74 726.79 575.74 741.09C645.17 741.09 714.59 741.09 784.02 741.09C784.02 726.79 784.02 712.49 784.02 698.2C757.6 698.2 731.19 698.2 704.78 698.2ZM496.5 576.99C496.14 568.15 494.65 559.03 491.74 550.68C475.86 505.08 427.03 493.24 383.5 497.84C358.48 500.48 332.6 509.55 317.15 530.67C311.02 539.05 306.79 549.13 306 559.5C305.39 567.61 305.48 575.45 307.23 583.44C314.53 616.78 351.65 631.34 381.68 636.66C391 638.32 400.42 638.95 409.71 640.68C427 643.9 452.11 646.56 453.98 668.5C455.32 684.28 441.71 697.17 427.25 700.67C423.71 701.52 420.22 701.78 416.63 702.31C393.79 705.65 364.71 699.64 352.64 677.85C349.54 672.24 348.46 666.23 347.5 659.98C330.66 659.98 313.83 659.98 296.99 659.98C298.29 679.88 304.35 698.66 317.59 713.89C330.17 728.37 348.26 737.23 366.45 742.13C407.8 753.28 464.23 746.8 491.39 709.87C498.86 699.71 503.79 687.18 503.97 674.5C504.12 663.58 503.61 653.01 499.83 642.66C487.86 609.92 447.88 601.34 417.5 597.07C401.71 594.86 385.86 594.23 371.18 587.34C363.39 583.69 356.34 577.41 355.24 568.45C353 550.14 374.81 541.54 389.5 540.92C408.56 540.12 433.3 541.58 443.84 560.67C446.68 565.81 447.02 571.3 447.89 576.99C464.09 576.99 480.3 576.99 496.5 576.99Z" fill="#edf3ee" fill-rule="evenodd" stroke="#edf3ee" stroke-width="0.25" stroke-linejoin="round"/>
<path d="M496.5 576.99C480.3 576.99 464.09 576.99 447.89 576.99C447.02 571.3 446.68 565.81 443.84 560.67C433.3 541.58 408.56 540.12 389.5 540.92C374.81 541.54 353 550.14 355.24 568.45C356.34 577.41 363.39 583.69 371.18 587.34C385.86 594.23 401.71 594.86 417.5 597.07C447.88 601.34 487.86 609.92 499.83 642.66C503.61 653.01 504.12 663.58 503.97 674.5C503.79 687.18 498.86 699.71 491.39 709.87C464.23 746.8 407.8 753.28 366.45 742.13C348.26 737.23 330.17 728.37 317.59 713.89C304.35 698.66 298.29 679.88 296.99 659.98C313.83 659.98 330.66 659.98 347.5 659.98C348.46 666.23 349.54 672.24 352.64 677.85C364.71 699.64 393.79 705.65 416.63 702.31C420.22 701.78 423.71 701.52 427.25 700.67C441.71 697.17 455.32 684.28 453.98 668.5C452.11 646.56 427 643.9 409.71 640.68C400.42 638.95 391 638.32 381.68 636.66C351.65 631.34 314.53 616.78 307.23 583.44C305.48 575.45 305.39 567.61 306 559.5C306.79 549.13 311.02 539.05 317.15 530.67C332.6 509.55 358.48 500.48 383.5 497.84C427.03 493.24 475.86 505.08 491.74 550.68C494.65 559.03 496.14 568.15 496.5 576.99Z" fill="#16221e" fill-rule="evenodd" stroke="#16221e" stroke-width="0.25" stroke-linejoin="round"/>
<path d="M704.78 698.2C731.19 698.2 757.6 698.2 784.02 698.2C784.02 712.49 784.02 726.79 784.02 741.09C714.59 741.09 645.17 741.09 575.74 741.09C575.74 726.79 575.74 712.49 575.74 698.2C602.23 698.2 628.72 698.2 655.21 698.2C655.21 634.97 655.21 571.73 655.21 508.5C655.21 492.5 655.21 476.5 655.21 460.5C655.21 456.86 656.32 446.21 653.88 443.68C651 440.7 639.63 441.99 635.5 441.99C624.17 441.99 612.83 441.99 601.5 441.99C595.76 441.99 589.58 442.6 583.99 441.5C583.99 427.5 583.99 413.5 583.99 399.5C593.98 397.74 605.31 399.06 615.5 399.06C625.17 399.06 634.83 399.06 644.5 399.06C661.21 399.06 680.41 398.27 692.89 411.63C704.54 424.09 704.78 440.4 704.78 456.5C704.78 468.83 704.78 481.17 704.78 493.5C704.78 561.73 704.78 629.97 704.78 698.2Z" fill="#58635b" fill-rule="evenodd" stroke="#58635b" stroke-width="0.25" stroke-linejoin="round"/>
</svg>